<svg xmlns="http://www.w3.org/2000/svg" xmlns:xlink="http://www.w3.org/1999/xlink" version="1.1" class="marks" width="609" height="299" viewBox="0 0 609 299"><rect width="609" height="299" fill="white"/><g fill="none" stroke-miterlimit="10" transform="translate(119,22)"><g class="mark-group role-frame root" role="graphics-object" aria-roledescription="group mark container"><g transform="translate(0,0)"><path class="background" aria-hidden="true" d="M0,0h0v0h0Z"/><g><g class="mark-group role-row-header row_header" role="graphics-object" aria-roledescription="group mark container"><g transform="translate(0,0)"><path class="background" aria-hidden="true" d="M0,0h0v20h0Z"/><g><g class="mark-group role-title"><g transform="translate(-10,10)"><path class="background" aria-hidden="true" d="M0,0h0v0h0Z" pointer-events="none"/><g><g class="mark-text role-title-text" role="graphics-symbol" aria-roledescription="title" aria-label="Title text ''" pointer-events="none"><text text-anchor="end" transform="translate(0,3)" font-family="sans-serif" font-size="10px" fill="#000" opacity="1"/></g></g><path class="foreground" aria-hidden="true" d="" pointer-events="none" display="none"/></g></g></g><path class="foreground" aria-hidden="true" d="" display="none"/></g><g transform="translate(0,20)"><path class="background" aria-hidden="true" d="M0,0h0v20h0Z"/><g><g class="mark-group role-title"><g transform="translate(-47,10)"><path class="background" aria-hidden="true" d="M0,0h0v0h0Z" pointer-events="none"/><g><g class="mark-text role-title-text" role="graphics-symbol" aria-roledescription="title" aria-label="Title text 'January'" pointer-events="none"><text text-anchor="end" transform="translate(0,3)" font-family="sans-serif" font-size="10px" fill="#000" opacity="1">January</text></g></g><path class="foreground" aria-hidden="true" d="" pointer-events="none" display="none"/></g></g></g><path class="foreground" aria-hidden="true" d="" display="none"/></g><g transform="translate(0,40)"><path class="background" aria-hidden="true" d="M0,0h0v20h0Z"/><g><g class="mark-group role-title"><g transform="translate(-51,10)"><path class="background" aria-hidden="true" d="M0,0h0v0h0Z" pointer-events="none"/><g><g class="mark-text role-title-text" role="graphics-symbol" aria-roledescription="title" aria-label="Title text 'February'" pointer-events="none"><text text-anchor="end" transform="translate(0,3)" font-family="sans-serif" font-size="10px" fill="#000" opacity="1">February</text></g></g><path class="foreground" aria-hidden="true" d="" pointer-events="none" display="none"/></g></g></g><path class="foreground" aria-hidden="true" d="" display="none"/></g><g transform="translate(0,60)"><path class="background" aria-hidden="true" d="M0,0h0v20h0Z"/><g><g class="mark-group role-title"><g transform="translate(-39,10)"><path class="background" aria-hidden="true" d="M0,0h0v0h0Z" pointer-events="none"/><g><g class="mark-text role-title-text" role="graphics-symbol" aria-roledescription="title" aria-label="Title text 'March'" pointer-events="none"><text text-anchor="end" transform="translate(0,3)" font-family="sans-serif" font-size="10px" fill="#000" opacity="1">March</text></g></g><path class="foreground" aria-hidden="true" d="" pointer-events="none" display="none"/></g></g></g><path class="foreground" aria-hidden="true" d="" display="none"/></g><g transform="translate(0,80)"><path class="background" aria-hidden="true" d="M0,0h0v20h0Z"/><g><g class="mark-group role-title"><g transform="translate(-32,10)"><path class="background" aria-hidden="true" d="M0,0h0v0h0Z" pointer-events="none"/><g><g class="mark-text role-title-text" role="graphics-symbol" aria-roledescription="title" aria-label="Title text 'April'" pointer-events="none"><text text-anchor="end" transform="translate(0,3)" font-family="sans-serif" font-size="10px" fill="#000" opacity="1">April</text></g></g><path class="foreground" aria-hidden="true" d="" pointer-events="none" display="none"/></g></g></g><path class="foreground" aria-hidden="true" d="" display="none"/></g><g transform="translate(0,100)"><path class="background" aria-hidden="true" d="M0,0h0v20h0Z"/><g><g class="mark-group role-title"><g transform="translate(-30,10)"><path class="background" aria-hidden="true" d="M0,0h0v0h0Z" pointer-events="none"/><g><g class="mark-text role-title-text" role="graphics-symbol" aria-roledescription="title" aria-label="Title text 'May'" pointer-events="none"><text text-anchor="end" transform="translate(0,3)" font-family="sans-serif" font-size="10px" fill="#000" opacity="1">May</text></g></g><path class="foreground" aria-hidden="true" d="" pointer-events="none" display="none"/></g></g></g><path class="foreground" aria-hidden="true" d="" display="none"/></g><g transform="translate(0,120)"><path class="background" aria-hidden="true" d="M0,0h0v20h0Z"/><g><g class="mark-group role-title"><g transform="translate(-33,10)"><path class="background" aria-hidden="true" d="M0,0h0v0h0Z" pointer-events="none"/><g><g class="mark-text role-title-text" role="graphics-symbol" aria-roledescription="title" aria-label="Title text 'June'" pointer-events="none"><text text-anchor="end" transform="translate(0,3)" font-family="sans-serif" font-size="10px" fill="#000" opacity="1">June</text></g></g><path class="foreground" aria-hidden="true" d="" pointer-events="none" display="none"/></g></g></g><path class="foreground" aria-hidden="true" d="" display="none"/></g><g transform="translate(0,140)"><path class="background" aria-hidden="true" d="M0,0h0v20h0Z"/><g><g class="mark-group role-title"><g transform="translate(-29,10)"><path class="background" aria-hidden="true" d="M0,0h0v0h0Z" pointer-events="none"/><g><g class="mark-text role-title-text" role="graphics-symbol" aria-roledescription="title" aria-label="Title text 'July'" pointer-events="none"><text text-anchor="end" transform="translate(0,3)" font-family="sans-serif" font-size="10px" fill="#000" opacity="1">July</text></g></g><path class="foreground" aria-hidden="true" d="" pointer-events="none" display="none"/></g></g></g><path class="foreground" aria-hidden="true" d="" display="none"/></g><g transform="translate(0,160)"><path class="background" aria-hidden="true" d="M0,0h0v20h0Z"/><g><g class="mark-group role-title"><g transform="translate(-42,10)"><path class="background" aria-hidden="true" d="M0,0h0v0h0Z" pointer-events="none"/><g><g class="mark-text role-title-text" role="graphics-symbol" aria-roledescription="title" aria-label="Title text 'August'" pointer-events="none"><text text-anchor="end" transform="translate(0,3)" font-family="sans-serif" font-size="10px" fill="#000" opacity="1">August</text></g></g><path class="foreground" aria-hidden="true" d="" pointer-events="none" display="none"/></g></g></g><path class="foreground" aria-hidden="true" d="" display="none"/></g><g transform="translate(0,180)"><path class="background" aria-hidden="true" d="M0,0h0v20h0Z"/><g><g class="mark-group role-title"><g transform="translate(-62,10)"><path class="background" aria-hidden="true" d="M0,0h0v0h0Z" pointer-events="none"/><g><g class="mark-text role-title-text" role="graphics-symbol" aria-roledescription="title" aria-label="Title text 'September'" pointer-events="none"><text text-anchor="end" transform="translate(0,3)" font-family="sans-serif" font-size="10px" fill="#000" opacity="1">September</text></g></g><path class="foreground" aria-hidden="true" d="" pointer-events="none" display="none"/></g></g></g><path class="foreground" aria-hidden="true" d="" display="none"/></g><g transform="translate(0,200)"><path class="background" aria-hidden="true" d="M0,0h0v20h0Z"/><g><g class="mark-group role-title"><g transform="translate(-47,10)"><path class="background" aria-hidden="true" d="M0,0h0v0h0Z" pointer-events="none"/><g><g class="mark-text role-title-text" role="graphics-symbol" aria-roledescription="title" aria-label="Title text 'October'" pointer-events="none"><text text-anchor="end" transform="translate(0,3)" font-family="sans-serif" font-size="10px" fill="#000" opacity="1">October</text></g></g><path class="foreground" aria-hidden="true" d="" pointer-events="none" display="none"/></g></g></g><path class="foreground" aria-hidden="true" d="" display="none"/></g><g transform="translate(0,220)"><path class="background" aria-hidden="true" d="M0,0h0v20h0Z"/><g><g class="mark-group role-title"><g transform="translate(-58,10)"><path class="background" aria-hidden="true" d="M0,0h0v0h0Z" pointer-events="none"/><g><g class="mark-text role-title-text" role="graphics-symbol" aria-roledescription="title" aria-label="Title text 'November'" pointer-events="none"><text text-anchor="end" transform="translate(0,3)" font-family="sans-serif" font-size="10px" fill="#000" opacity="1">November</text></g></g><path class="foreground" aria-hidden="true" d="" pointer-events="none" display="none"/></g></g></g><path class="foreground" aria-hidden="true" d="" display="none"/></g></g><g class="mark-group role-column-footer column_footer" role="graphics-object" aria-roledescription="group mark container"><g transform="translate(0,240)"><path class="background" aria-hidden="true" d="M0,0h400v0h-400Z"/><g><g class="mark-group role-axis" role="graphics-symbol" aria-roledescription="axis" aria-label="X-axis titled 'Maximum Daily Temperature (C)' for a linear scale with values from 1 to 6"><g transform="translate(0.5,0.5)"><path class="background" aria-hidden="true" d="M0,0h0v0h0Z" pointer-events="none"/><g><g class="mark-rule role-axis-tick" pointer-events="none"><line transform="translate(0,0)" x2="0" y2="5" stroke="#888" stroke-width="1" opacity="1"/><line transform="translate(40,0)" x2="0" y2="5" stroke="#888" stroke-width="1" opacity="1"/><line transform="translate(80,0)" x2="0" y2="5" stroke="#888" stroke-width="1" opacity="1"/><line transform="translate(120,0)" x2="0" y2="5" stroke="#888" stroke-width="1" opacity="1"/><line transform="translate(160,0)" x2="0" y2="5" stroke="#888" stroke-width="1" opacity="1"/><line transform="translate(200,0)" x2="0" y2="5" stroke="#888" stroke-width="1" opacity="1"/><line transform="translate(240,0)" x2="0" y2="5" stroke="#888" stroke-width="1" opacity="1"/><line transform="translate(280,0)" x2="0" y2="5" stroke="#888" stroke-width="1" opacity="1"/><line transform="translate(320,0)" x2="0" y2="5" stroke="#888" stroke-width="1" opacity="1"/><line transform="translate(360,0)" x2="0" y2="5" stroke="#888" stroke-width="1" opacity="1"/><line transform="translate(400,0)" x2="0" y2="5" stroke="#888" stroke-width="1" opacity="1"/></g><g class="mark-text role-axis-label" pointer-events="none"><text text-anchor="start" transform="translate(0,15)" font-family="sans-serif" font-size="10px" fill="#000" opacity="1">1.0</text><text text-anchor="middle" transform="translate(40,15)" font-family="sans-serif" font-size="10px" fill="#000" opacity="1">1.5</text><text text-anchor="middle" transform="translate(80,15)" font-family="sans-serif" font-size="10px" fill="#000" opacity="1">2.0</text><text text-anchor="middle" transform="translate(120,15)" font-family="sans-serif" font-size="10px" fill="#000" opacity="1">2.5</text><text text-anchor="middle" transform="translate(160,15)" font-family="sans-serif" font-size="10px" fill="#000" opacity="1">3.0</text><text text-anchor="middle" transform="translate(200,15)" font-family="sans-serif" font-size="10px" fill="#000" opacity="1">3.5</text><text text-anchor="middle" transform="translate(240,15)" font-family="sans-serif" font-size="10px" fill="#000" opacity="1">4.0</text><text text-anchor="middle" transform="translate(280,15)" font-family="sans-serif" font-size="10px" fill="#000" opacity="1">4.5</text><text text-anchor="middle" transform="translate(320,15)" font-family="sans-serif" font-size="10px" fill="#000" opacity="1">5.0</text><text text-anchor="middle" transform="translate(360,15)" font-family="sans-serif" font-size="10px" fill="#000" opacity="1">5.5</text><text text-anchor="end" transform="translate(400,15)" font-family="sans-serif" font-size="10px" fill="#000" opacity="1">6.0</text></g><g class="mark-rule role-axis-domain" pointer-events="none"><line transform="translate(0,0)" x2="400" y2="0" stroke="#888" stroke-width="1" opacity="1"/></g><g class="mark-text role-axis-title" pointer-events="none"><text text-anchor="middle" transform="translate(200,30)" font-family="sans-serif" font-size="11px" font-weight="bold" fill="#000" opacity="1">Maximum Daily Temperature (C)</text></g></g><path class="foreground" aria-hidden="true" d="" pointer-events="none" display="none"/></g></g></g><path class="foreground" aria-hidden="true" d="" display="none"/></g></g><g class="mark-group role-scope cell" role="graphics-object" aria-roledescription="group mark container"><g transform="translate(0,0)"><path class="background" aria-hidden="true" d="M0,0h400v20h-400Z"/><g><g class="mark-group role-scope child_pathgroup" role="graphics-object" aria-roledescription="group mark container"><g transform="translate(0,0)"><path class="background" aria-hidden="true" d="M0,0h400v20h-400Z"/><g><g class="mark-area role-mark child_marks" clip-path="url(#clip2)" role="graphics-object" aria-roledescription="area mark container"><path aria-label="mean_temp: 3.06032516396; Maximum Daily Temperature (C): 0.5; value: 0" role="graphics-symbol" aria-roledescription="area mark" d="M-40,20C-26.666666666666664,20,-13.333333333333334,20,0,20C13.333333333333334,20,26.666666666666664,20,40,20L40,20C26.666666666666664,20,13.333333333333334,20,0,20C-13.333333333333334,20,-26.666666666666664,20,-40,20Z" fill="rgb(40, 197, 224)" fill-opacity="0.8" stroke="lightgray" stroke-width="0.5"/></g></g><path class="foreground" aria-hidden="true" d="" display="none"/></g><g transform="translate(0,0)"><path class="background" aria-hidden="true" d="M0,0h400v20h-400Z"/><g><g class="mark-area role-mark child_marks" clip-path="url(#clip3)" role="graphics-object" aria-roledescription="area mark container"><path aria-label="mean_temp: 2.59627865633; Maximum Daily Temperature (C): 0.5; value: 0" role="graphics-symbol" aria-roledescription="area mark" d="M-40,20C-26.666666666666664,20,-13.333333333333334,20,0,20C93.33333333333333,20,186.66666666666669,20,280,20L280,20C186.66666666666669,20,93.33333333333333,20,0,20C-13.333333333333334,20,-26.666666666666664,20,-40,20Z" fill="rgb(4, 161, 203)" fill-opacity="0.8" stroke="lightgray" stroke-width="0.5"/></g></g><path class="foreground" aria-hidden="true" d="" display="none"/></g><g transform="translate(0,0)"><path class="background" aria-hidden="true" d="M0,0h400v20h-400Z"/><g><g class="mark-area role-mark child_marks" clip-path="url(#clip4)" role="graphics-object" aria-roledescription="area mark container"><path aria-label="mean_temp: 1.78677795329; Maximum Daily Temperature (C): 4.5; value: 0" role="graphics-symbol" aria-roledescription="area mark" d="M280,20L360,20L360,20L280,20Z" fill="rgb(17, 101, 157)" fill-opacity="0.8" stroke="lightgray" stroke-width="0.5"/></g></g><path class="foreground" aria-hidden="true" d="" display="none"/></g><g transform="translate(0,0)"><path class="background" aria-hidden="true" d="M0,0h400v20h-400Z"/><g><g class="mark-area role-mark child_marks" clip-path="url(#clip5)" role="graphics-object" aria-roledescription="area mark container"><path aria-label="mean_temp: 1.49662040677; Maximum Daily Temperature (C): 0.5; value: 0" role="graphics-symbol" aria-roledescription="area mark" d="M-40,20C40,20,120,20,200,20C213.33333333333334,20,226.66666666666666,20,240,20C253.33333333333334,20,266.6666666666667,20,280,20C306.6666666666667,20,333.3333333333333,20,360,20L360,20C333.3333333333333,20,306.6666666666667,20,280,20C266.6666666666667,20,253.33333333333334,20,240,20C226.66666666666666,20,213.33333333333334,20,200,20C120,20,40,20,-40,20Z" fill="rgb(36, 81, 125)" fill-opacity="0.8" stroke="lightgray" stroke-width="0.5"/></g></g><path class="foreground" aria-hidden="true" d="" display="none"/></g><g transform="translate(0,0)"><path class="background" aria-hidden="true" d="M0,0h400v20h-400Z"/><g><g class="mark-area role-mark child_marks" clip-path="url(#clip6)" role="graphics-object" aria-roledescription="area mark container"><path aria-label="mean_temp: 1.66098516781; Maximum Daily Temperature (C): 0.5; value: 0" role="graphics-symbol" aria-roledescription="area mark" d="M-40,20C53.33333333333333,20,146.66666666666669,20,240,20C253.33333333333334,20,266.6666666666667,20,280,20C306.6666666666667,20,333.3333333333333,20,360,20L360,20C333.3333333333333,20,306.6666666666667,20,280,20C266.6666666666667,20,253.33333333333334,20,240,20C146.66666666666669,20,53.33333333333333,20,-40,20Z" fill="rgb(26, 92, 146)" fill-opacity="0.8" stroke="lightgray" stroke-width="0.5"/></g></g><path class="foreground" aria-hidden="true" d="" display="none"/></g><g transform="translate(0,0)"><path class="background" aria-hidden="true" d="M0,0h400v20h-400Z"/><g><g class="mark-area role-mark child_marks" clip-path="url(#clip7)" role="graphics-object" aria-roledescription="area mark container"><path aria-label="mean_temp: 1.67543448068; Maximum Daily Temperature (C): 0.5; value: 0" role="graphics-symbol" aria-roledescription="area mark" d="M-40,20C40,20,120,20,200,20C213.33333333333334,20,226.66666666666666,20,240,20C253.33333333333334,20,266.6666666666667,20,280,20C306.6666666666667,20,333.3333333333333,20,360,20L360,20C333.3333333333333,20,306.6666666666667,20,280,20C266.6666666666667,20,253.33333333333334,20,240,20C226.66666666666666,20,213.33333333333334,20,200,20C120,20,40,20,-40,20Z" fill="rgb(25, 93, 148)" fill-opacity="0.8" stroke="lightgray" stroke-width="0.5"/></g></g><path class="foreground" aria-hidden="true" d="" display="none"/></g><g transform="translate(0,0)"><path class="background" aria-hidden="true" d="M0,0h400v20h-400Z"/><g><g class="mark-area role-mark child_marks" clip-path="url(#clip8)" role="graphics-object" aria-roledescription="area mark container"><path aria-label="mean_temp: 1.3323185882; Maximum Daily Temperature (C): 0.5; value: 0" role="graphics-symbol" aria-roledescription="area mark" d="M-40,20C40,20,120,20,200,20C213.33333333333334,20,226.66666666666666,20,240,20C253.33333333333334,20,266.6666666666667,20,280,20C306.6666666666667,20,333.3333333333333,20,360,20L360,20C333.3333333333333,20,306.6666666666667,20,280,20C266.6666666666667,20,253.33333333333334,20,240,20C226.66666666666666,20,213.33333333333334,20,200,20C120,20,40,20,-40,20Z" fill="rgb(45, 70, 104)" fill-opacity="0.8" stroke="lightgray" stroke-width="0.5"/></g></g><path class="foreground" aria-hidden="true" d="" display="none"/></g><g transform="translate(0,0)"><path class="background" aria-hidden="true" d="M0,0h400v20h-400Z"/><g><g class="mark-area role-mark child_marks" clip-path="url(#clip9)" role="graphics-object" aria-roledescription="area mark container"><path aria-label="mean_temp: 1.35104752917; Maximum Daily Temperature (C): 0.5; value: 0" role="graphics-symbol" aria-roledescription="area mark" d="M-40,20C40,20,120,20,200,20C213.33333333333334,20,226.66666666666666,20,240,20C253.33333333333334,20,266.6666666666667,20,280,20C306.6666666666667,20,333.3333333333333,20,360,20L360,20C333.3333333333333,20,306.6666666666667,20,280,20C266.6666666666667,20,253.33333333333334,20,240,20C226.66666666666666,20,213.33333333333334,20,200,20C120,20,40,20,-40,20Z" fill="rgb(44, 71, 106)" fill-opacity="0.8" stroke="lightgray" stroke-width="0.5"/></g></g><path class="foreground" aria-hidden="true" d="" display="none"/></g><g transform="translate(0,0)"><path class="background" aria-hidden="true" d="M0,0h400v20h-400Z"/><g><g class="mark-area role-mark child_marks" clip-path="url(#clip10)" role="graphics-object" aria-roledescription="area mark container"><path aria-label="mean_temp: 1.42515233452; Maximum Daily Temperature (C): 4; value: 0" role="graphics-symbol" aria-roledescription="area mark" d="M240,20C253.33333333333334,20,266.6666666666667,20,280,20C306.6666666666667,20,333.3333333333333,20,360,20L360,20C333.3333333333333,20,306.6666666666667,20,280,20C266.6666666666667,20,253.33333333333334,20,240,20Z" fill="rgb(40, 76, 116)" fill-opacity="0.8" stroke="lightgray" stroke-width="0.5"/></g></g><path class="foreground" aria-hidden="true" d="" display="none"/></g><g transform="translate(0,0)"><path class="background" aria-hidden="true" d="M0,0h400v20h-400Z"/><g><g class="mark-area role-mark child_marks" clip-path="url(#clip11)" role="graphics-object" aria-roledescription="area mark container"><path aria-label="mean_temp: 1.81883053204; Maximum Daily Temperature (C): 0.5; value: 0" role="graphics-symbol" aria-roledescription="area mark" d="M-40,20C53.33333333333333,20,146.66666666666669,20,240,20C253.33333333333334,20,266.6666666666667,20,280,20C306.6666666666667,20,333.3333333333333,20,360,20L360,20C333.3333333333333,20,306.6666666666667,20,280,20C266.6666666666667,20,253.33333333333334,20,240,20C146.66666666666669,20,53.33333333333333,20,-40,20Z" fill="rgb(14, 103, 160)" fill-opacity="0.8" stroke="lightgray" stroke-width="0.5"/></g></g><path class="foreground" aria-hidden="true" d="" display="none"/></g><g transform="translate(0,0)"><path class="background" aria-hidden="true" d="M0,0h400v20h-400Z"/><g><g class="mark-area role-mark child_marks" clip-path="url(#clip12)" role="graphics-object" aria-roledescription="area mark container"><path aria-label="mean_temp: 2.47099560714; Maximum Daily Temperature (C): 0.5; value: 0" role="graphics-symbol" aria-roledescription="area mark" d="M-40,20L360,20L360,20L-40,20Z" fill="rgb(2, 151, 197)" fill-opacity="0.8" stroke="lightgray" stroke-width="0.5"/></g></g><path class="foreground" aria-hidden="true" d="" display="none"/></g></g></g><path class="foreground" aria-hidden="true" d="" display="none"/></g><g transform="translate(0,20)"><path class="background" aria-hidden="true" d="M0,0h400v20h-400Z"/><g><g class="mark-group role-scope child_pathgroup" role="graphics-object" aria-roledescription="group mark container"><g transform="translate(0,0)"><path class="background" aria-hidden="true" d="M0,0h400v20h-400Z"/><g><g class="mark-area role-mark child_marks" clip-path="url(#clip13)" role="graphics-object" aria-roledescription="area mark container"><path aria-label="mean_temp: 3.06032516396; Maximum Daily Temperature (C): 2; value: 1" role="graphics-symbol" aria-roledescription="area mark" d="M80,17.5C93.33333333333333,10,106.66666666666667,2.5,120,2.5C133.33333333333334,2.5,146.66666666666666,5,160,5C173.33333333333334,5,186.66666666666666,-5,200,-5C213.33333333333334,-5,226.66666666666666,12.5,240,12.5C253.33333333333334,12.5,266.6666666666667,12.5,280,12.5C306.6666666666667,12.5,333.3333333333333,15,360,17.5L360,20C333.3333333333333,20,306.6666666666667,20,280,20C266.6666666666667,20,253.33333333333334,20,240,20C226.66666666666666,20,213.33333333333334,20,200,20C186.66666666666666,20,173.33333333333334,20,160,20C146.66666666666666,20,133.33333333333334,20,120,20C106.66666666666667,20,93.33333333333333,20,80,20Z" fill="rgb(40, 197, 224)" fill-opacity="0.8" stroke="lightgray" stroke-width="0.5"/></g></g><path class="foreground" aria-hidden="true" d="" display="none"/></g></g></g><path class="foreground" aria-hidden="true" d="" display="none"/></g><g transform="translate(0,40)"><path class="background" aria-hidden="true" d="M0,0h400v20h-400Z"/><g><g class="mark-group role-scope child_pathgroup" role="graphics-object" aria-roledescription="group mark container"><g transform="translate(0,0)"><path class="background" aria-hidden="true" d="M0,0h400v20h-400Z"/><g><g class="mark-area role-mark child_marks" clip-path="url(#clip14)" role="graphics-object" aria-roledescription="area mark container"><path aria-label="mean_temp: 2.59627865633; Maximum Daily Temperature (C): 1.5; value: 3" role="graphics-symbol" aria-roledescription="area mark" d="M40,12.5C53.333333333333336,8.75,66.66666666666667,5,80,5C93.33333333333333,5,106.66666666666667,5,120,5C133.33333333333334,5,146.66666666666666,5,160,5C173.33333333333334,5,186.66666666666666,8.333333333333334,200,10C213.33333333333334,11.666666666666666,226.66666666666666,15,240,15C280,15,320,15,360,15L360,20C320,20,280,20,240,20C226.66666666666666,20,213.33333333333334,20,200,20C186.66666666666666,20,173.33333333333334,20,160,20C146.66666666666666,20,133.33333333333334,20,120,20C106.66666666666667,20,93.33333333333333,20,80,20C66.66666666666667,20,53.333333333333336,20,40,20Z" fill="rgb(4, 161, 203)" fill-opacity="0.8" stroke="lightgray" stroke-width="0.5"/></g></g><path class="foreground" aria-hidden="true" d="" display="none"/></g></g></g><path class="foreground" aria-hidden="true" d="" display="none"/></g><g transform="translate(0,60)"><path class="background" aria-hidden="true" d="M0,0h400v20h-400Z"/><g><g class="mark-group role-scope child_pathgroup" role="graphics-object" aria-roledescription="group mark container"><g transform="translate(0,0)"><path class="background" aria-hidden="true" d="M0,0h400v20h-400Z"/><g><g class="mark-area role-mark child_marks" clip-path="url(#clip15)" role="graphics-object" aria-roledescription="area mark container"><path aria-label="mean_temp: 1.78677795329; Maximum Daily Temperature (C): 0.5; value: 1" role="graphics-symbol" aria-roledescription="area mark" d="M-40,17.5C-26.666666666666664,13.958333333333332,-13.333333333333334,10.416666666666668,0,7.5C13.333333333333334,4.583333333333333,26.666666666666664,0,40,0C53.333333333333336,0,66.66666666666667,5.833333333333333,80,7.5C93.33333333333333,9.166666666666666,106.66666666666667,10,120,10C133.33333333333334,10,146.66666666666666,5,160,5C173.33333333333334,5,186.66666666666666,17.5,200,17.5C213.33333333333334,17.5,226.66666666666666,17.5,240,17.5L240,20C226.66666666666666,20,213.33333333333334,20,200,20C186.66666666666666,20,173.33333333333334,20,160,20C146.66666666666666,20,133.33333333333334,20,120,20C106.66666666666667,20,93.33333333333333,20,80,20C66.66666666666667,20,53.333333333333336,20,40,20C26.666666666666664,20,13.333333333333334,20,0,20C-13.333333333333334,20,-26.666666666666664,20,-40,20Z" fill="rgb(17, 101, 157)" fill-opacity="0.8" stroke="lightgray" stroke-width="0.5"/></g></g><path class="foreground" aria-hidden="true" d="" display="none"/></g></g></g><path class="foreground" aria-hidden="true" d="" display="none"/></g><g transform="translate(0,80)"><path class="background" aria-hidden="true" d="M0,0h400v20h-400Z"/><g><g class="mark-group role-scope child_pathgroup" role="graphics-object" aria-roledescription="group mark container"><g transform="translate(0,0)"><path class="background" aria-hidden="true" d="M0,0h400v20h-400Z"/><g><g class="mark-area role-mark child_marks" clip-path="url(#clip16)" role="graphics-object" aria-roledescription="area mark container"><path aria-label="mean_temp: 1.49662040677; Maximum Daily Temperature (C): 1; value: 4" role="graphics-symbol" aria-roledescription="area mark" d="M0,10C13.333333333333334,-3.75,26.666666666666664,-17.5,40,-17.5C53.333333333333336,-17.5,66.66666666666667,5.833333333333333,80,7.5C93.33333333333333,9.166666666666666,106.66666666666667,8.75,120,10C133.33333333333334,11.25,146.66666666666666,13.125,160,15L160,20C146.66666666666666,20,133.33333333333334,20,120,20C106.66666666666667,20,93.33333333333333,20,80,20C66.66666666666667,20,53.333333333333336,20,40,20C26.666666666666664,20,13.333333333333334,20,0,20Z" fill="rgb(36, 81, 125)" fill-opacity="0.8" stroke="lightgray" stroke-width="0.5"/></g></g><path class="foreground" aria-hidden="true" d="" display="none"/></g></g></g><path class="foreground" aria-hidden="true" d="" display="none"/></g><g transform="translate(0,100)"><path class="background" aria-hidden="true" d="M0,0h400v20h-400Z"/><g><g class="mark-group role-scope child_pathgroup" role="graphics-object" aria-roledescription="group mark container"><g transform="translate(0,0)"><path class="background" aria-hidden="true" d="M0,0h400v20h-400Z"/><g><g class="mark-area role-mark child_marks" clip-path="url(#clip17)" role="graphics-object" aria-roledescription="area mark container"><path aria-label="mean_temp: 1.66098516781; Maximum Daily Temperature (C): 1; value: 3" role="graphics-symbol" aria-roledescription="area mark" d="M0,12.5C13.333333333333334,8.541666666666666,26.666666666666664,4.583333333333334,40,0C53.333333333333336,-4.583333333333334,66.66666666666667,-15,80,-15C93.33333333333333,-15,106.66666666666667,5,120,10C133.33333333333334,15,146.66666666666666,17.5,160,17.5C173.33333333333334,17.5,186.66666666666666,17.5,200,17.5L200,20C186.66666666666666,20,173.33333333333334,20,160,20C146.66666666666666,20,133.33333333333334,20,120,20C106.66666666666667,20,93.33333333333333,20,80,20C66.66666666666667,20,53.333333333333336,20,40,20C26.666666666666664,20,13.333333333333334,20,0,20Z" fill="rgb(26, 92, 146)" fill-opacity="0.8" stroke="lightgray" stroke-width="0.5"/></g></g><path class="foreground" aria-hidden="true" d="" display="none"/></g></g></g><path class="foreground" aria-hidden="true" d="" display="none"/></g><g transform="translate(0,120)"><path class="background" aria-hidden="true" d="M0,0h400v20h-400Z"/><g><g class="mark-group role-scope child_pathgroup" role="graphics-object" aria-roledescription="group mark container"><g transform="translate(0,0)"><path class="background" aria-hidden="true" d="M0,0h400v20h-400Z"/><g><g class="mark-area role-mark child_marks" clip-path="url(#clip18)" role="graphics-object" aria-roledescription="area mark container"><path aria-label="mean_temp: 1.67543448068; Maximum Daily Temperature (C): 1; value: 1" role="graphics-symbol" aria-roledescription="area mark" d="M0,17.5C13.333333333333334,8.958333333333332,26.666666666666664,0.41666666666666696,40,-5C53.333333333333336,-10.416666666666668,66.66666666666667,-15,80,-15C93.33333333333333,-15,106.66666666666667,15,120,15C133.33333333333334,15,146.66666666666666,13.75,160,12.5L160,20C146.66666666666666,20,133.33333333333334,20,120,20C106.66666666666667,20,93.33333333333333,20,80,20C66.66666666666667,20,53.333333333333336,20,40,20C26.666666666666664,20,13.333333333333334,20,0,20Z" fill="rgb(25, 93, 148)" fill-opacity="0.8" stroke="lightgray" stroke-width="0.5"/></g></g><path class="foreground" aria-hidden="true" d="" display="none"/></g></g></g><path class="foreground" aria-hidden="true" d="" display="none"/></g><g transform="translate(0,140)"><path class="background" aria-hidden="true" d="M0,0h400v20h-400Z"/><g><g class="mark-group role-scope child_pathgroup" role="graphics-object" aria-roledescription="group mark container"><g transform="translate(0,0)"><path class="background" aria-hidden="true" d="M0,0h400v20h-400Z"/><g><g class="mark-area role-mark child_marks" clip-path="url(#clip19)" role="graphics-object" aria-roledescription="area mark container"><path aria-label="mean_temp: 1.3323185882; Maximum Daily Temperature (C): 1; value: 10" role="graphics-symbol" aria-roledescription="area mark" d="M0,-5C13.333333333333334,-6.25,26.666666666666664,-7.5,40,-7.5C53.333333333333336,-7.5,66.66666666666667,1.6666666666666665,80,5C93.33333333333333,8.333333333333334,106.66666666666667,10.416666666666666,120,12.5C133.33333333333334,14.583333333333334,146.66666666666666,16.041666666666668,160,17.5L160,20C146.66666666666666,20,133.33333333333334,20,120,20C106.66666666666667,20,93.33333333333333,20,80,20C66.66666666666667,20,53.333333333333336,20,40,20C26.666666666666664,20,13.333333333333334,20,0,20Z" fill="rgb(45, 70, 104)" fill-opacity="0.8" stroke="lightgray" stroke-width="0.5"/></g></g><path class="foreground" aria-hidden="true" d="" display="none"/></g></g></g><path class="foreground" aria-hidden="true" d="" display="none"/></g><g transform="translate(0,160)"><path class="background" aria-hidden="true" d="M0,0h400v20h-400Z"/><g><g class="mark-group role-scope child_pathgroup" role="graphics-object" aria-roledescription="group mark container"><g transform="translate(0,0)"><path class="background" aria-hidden="true" d="M0,0h400v20h-400Z"/><g><g class="mark-area role-mark child_marks" clip-path="url(#clip20)" role="graphics-object" aria-roledescription="area mark container"><path aria-label="mean_temp: 1.35104752917; Maximum Daily Temperature (C): 1; value: 10" role="graphics-symbol" aria-roledescription="area mark" d="M0,-5C13.333333333333334,-5,26.666666666666664,-5,40,-5C53.333333333333336,-5,66.66666666666667,-3.3333333333333335,80,0C93.33333333333333,3.3333333333333335,106.66666666666667,13.333333333333334,120,15C133.33333333333334,16.666666666666668,146.66666666666666,17.083333333333332,160,17.5L160,20C146.66666666666666,20,133.33333333333334,20,120,20C106.66666666666667,20,93.33333333333333,20,80,20C66.66666666666667,20,53.333333333333336,20,40,20C26.666666666666664,20,13.333333333333334,20,0,20Z" fill="rgb(44, 71, 106)" fill-opacity="0.8" stroke="lightgray" stroke-width="0.5"/></g></g><path class="foreground" aria-hidden="true" d="" display="none"/></g></g></g><path class="foreground" aria-hidden="true" d="" display="none"/></g><g transform="translate(0,180)"><path class="background" aria-hidden="true" d="M0,0h400v20h-400Z"/><g><g class="mark-group role-scope child_pathgroup" role="graphics-object" aria-roledescription="group mark container"><g transform="translate(0,0)"><path class="background" aria-hidden="true" d="M0,0h400v20h-400Z"/><g><g class="mark-area role-mark child_marks" clip-path="url(#clip21)" role="graphics-object" aria-roledescription="area mark container"><path aria-label="mean_temp: 1.42515233452; Maximum Daily Temperature (C): 0.5; value: 2" role="graphics-symbol" aria-roledescription="area mark" d="M-40,15C-26.666666666666664,5,-13.333333333333334,-5,0,-5C13.333333333333334,-5,26.666666666666664,3.333333333333333,40,5C53.333333333333336,6.666666666666667,66.66666666666667,6.25,80,7.5C93.33333333333333,8.75,106.66666666666667,11.25,120,12.5C133.33333333333334,13.75,146.66666666666666,15,160,15C173.33333333333334,15,186.66666666666666,15,200,15L200,20C186.66666666666666,20,173.33333333333334,20,160,20C146.66666666666666,20,133.33333333333334,20,120,20C106.66666666666667,20,93.33333333333333,20,80,20C66.66666666666667,20,53.333333333333336,20,40,20C26.666666666666664,20,13.333333333333334,20,0,20C-13.333333333333334,20,-26.666666666666664,20,-40,20Z" fill="rgb(40, 76, 116)" fill-opacity="0.8" stroke="lightgray" stroke-width="0.5"/></g></g><path class="foreground" aria-hidden="true" d="" display="none"/></g></g></g><path class="foreground" aria-hidden="true" d="" display="none"/></g><g transform="translate(0,200)"><path class="background" aria-hidden="true" d="M0,0h400v20h-400Z"/><g><g class="mark-group role-scope child_pathgroup" role="graphics-object" aria-roledescription="group mark container"><g transform="translate(0,0)"><path class="background" aria-hidden="true" d="M0,0h400v20h-400Z"/><g><g class="mark-area role-mark child_marks" clip-path="url(#clip22)" role="graphics-object" aria-roledescription="area mark container"><path aria-label="mean_temp: 1.81883053204; Maximum Daily Temperature (C): 1; value: 2" role="graphics-symbol" aria-roledescription="area mark" d="M0,15C13.333333333333334,9.166666666666666,26.666666666666664,3.3333333333333335,40,0C53.333333333333336,-3.3333333333333335,66.66666666666667,-5,80,-5C93.33333333333333,-5,106.66666666666667,2.5,120,5C133.33333333333334,7.5,146.66666666666666,7.916666666666666,160,10C173.33333333333334,12.083333333333334,186.66666666666666,14.791666666666666,200,17.5L200,20C186.66666666666666,20,173.33333333333334,20,160,20C146.66666666666666,20,133.33333333333334,20,120,20C106.66666666666667,20,93.33333333333333,20,80,20C66.66666666666667,20,53.333333333333336,20,40,20C26.666666666666664,20,13.333333333333334,20,0,20Z" fill="rgb(14, 103, 160)" fill-opacity="0.8" stroke="lightgray" stroke-width="0.5"/></g></g><path class="foreground" aria-hidden="true" d="" display="none"/></g></g></g><path class="foreground" aria-hidden="true" d="" display="none"/></g><g transform="translate(0,220)"><path class="background" aria-hidden="true" d="M0,0h400v20h-400Z"/><g><g class="mark-group role-scope child_pathgroup" role="graphics-object" aria-roledescription="group mark container"><g transform="translate(0,0)"><path class="background" aria-hidden="true" d="M0,0h400v20h-400Z"/><g><g class="mark-area role-mark child_marks" clip-path="url(#clip23)" role="graphics-object" aria-roledescription="area mark container"><path aria-label="mean_temp: 2.47099560714; Maximum Daily Temperature (C): 1; value: 1" role="graphics-symbol" aria-roledescription="area mark" d="M0,17.5C13.333333333333334,17.5,26.666666666666664,17.5,40,17.5C53.333333333333336,17.5,66.66666666666667,5,80,5C93.33333333333333,5,106.66666666666667,12.5,120,12.5C133.33333333333334,12.5,146.66666666666666,5,160,5C173.33333333333334,5,186.66666666666666,7.916666666666666,200,10C213.33333333333334,12.083333333333334,226.66666666666666,17.5,240,17.5C253.33333333333334,17.5,266.6666666666667,17.5,280,17.5L280,20C266.6666666666667,20,253.33333333333334,20,240,20C226.66666666666666,20,213.33333333333334,20,200,20C186.66666666666666,20,173.33333333333334,20,160,20C146.66666666666666,20,133.33333333333334,20,120,20C106.66666666666667,20,93.33333333333333,20,80,20C66.66666666666667,20,53.333333333333336,20,40,20C26.666666666666664,20,13.333333333333334,20,0,20Z" fill="rgb(2, 151, 197)" fill-opacity="0.8" stroke="lightgray" stroke-width="0.5"/></g></g><path class="foreground" aria-hidden="true" d="" display="none"/></g></g></g><path class="foreground" aria-hidden="true" d="" display="none"/></g></g><g class="mark-group role-legend" role="graphics-symbol" aria-roledescription="legend" aria-label="Gradient legend titled 'mean_temp' for fill color with values from 1.0 to 4.0"><g transform="translate(419,0)"><path class="background" aria-hidden="true" d="M0,0h66v80h-66Z" pointer-events="none"/><g><g class="mark-group role-legend-entry"><g transform="translate(0,16)"><path class="background" aria-hidden="true" d="M0,0h0v0h0Z" pointer-events="none"/><g><g class="mark-rect role-legend-gradient" pointer-events="none"><path d="M0,0h16v64h-16Z" fill="url(#gradient_0)" stroke="#ddd" stroke-width="0" opacity="1"/></g><g class="mark-text role-legend-label" pointer-events="none"><text text-anchor="start" transform="translate(18,62)" font-family="sans-serif" font-size="10px" fill="#000" opacity="1">1</text><text text-anchor="start" transform="translate(18,8)" font-family="sans-serif" font-size="10px" fill="#000" opacity="1">4</text></g></g><path class="foreground" aria-hidden="true" d="" pointer-events="none" display="none"/></g></g><g class="mark-text role-legend-title" pointer-events="none"><text text-anchor="start" transform="translate(0,9)" font-family="sans-serif" font-size="11px" font-weight="bold" fill="#000" opacity="1">mean_temp</text></g></g><path class="foreground" aria-hidden="true" d="" pointer-events="none" display="none"/></g></g><g class="mark-group role-title"><g transform="translate(485,-17)"><path class="background" aria-hidden="true" d="M0,0h0v0h0Z" pointer-events="none"/><g><g class="mark-text role-title-text" role="graphics-symbol" aria-roledescription="title" aria-label="Title text 'Neah Bay Swell'" pointer-events="none"><text text-anchor="end" transform="translate(0,10)" font-family="sans-serif" font-size="13px" font-weight="bold" fill="#000" opacity="1">Neah Bay Swell</text></g></g><path class="foreground" aria-hidden="true" d="" pointer-events="none" display="none"/></g></g></g><path class="foreground" aria-hidden="true" d="" display="none"/></g></g></g><defs><linearGradient id="gradient_0" x1="0" x2="0" y1="1" y2="0"><stop offset="0" stop-color="rgb(50, 50, 50)"/><stop offset="0.06666666666666665" stop-color="rgb(47, 62, 82)"/><stop offset="0.1333333333333333" stop-color="rgb(41, 74, 113)"/><stop offset="0.20000000000000004" stop-color="rgb(30, 88, 138)"/><stop offset="0.26666666666666666" stop-color="rgb(16, 102, 158)"/><stop offset="0.3333333333333333" stop-color="rgb(0, 116, 175)"/><stop offset="0.4000000000000001" stop-color="rgb(0, 130, 185)"/><stop offset="0.4666666666666666" stop-color="rgb(1, 145, 194)"/><stop offset="0.5333333333333333" stop-color="rgb(4, 162, 203)"/><stop offset="0.6" stop-color="rgb(18, 177, 212)"/><stop offset="0.6666666666666666" stop-color="rgb(37, 192, 221)"/><stop offset="0.7333333333333334" stop-color="rgb(48, 208, 231)"/><stop offset="0.7999999999999999" stop-color="rgb(61, 223, 240)"/><stop offset="0.8666666666666667" stop-color="rgb(75, 238, 247)"/><stop offset="0.9333333333333332" stop-color="rgb(150, 248, 252)"/><stop offset="1" stop-color="rgb(255, 255, 255)"/></linearGradient><clipPath id="clip2"><rect x="0" y="0" width="400" height="20"/></clipPath><clipPath id="clip3"><rect x="0" y="0" width="400" height="20"/></clipPath><clipPath id="clip4"><rect x="0" y="0" width="400" height="20"/></clipPath><clipPath id="clip5"><rect x="0" y="0" width="400" height="20"/></clipPath><clipPath id="clip6"><rect x="0" y="0" width="400" height="20"/></clipPath><clipPath id="clip7"><rect x="0" y="0" width="400" height="20"/></clipPath><clipPath id="clip8"><rect x="0" y="0" width="400" height="20"/></clipPath><clipPath id="clip9"><rect x="0" y="0" width="400" height="20"/></clipPath><clipPath id="clip10"><rect x="0" y="0" width="400" height="20"/></clipPath><clipPath id="clip11"><rect x="0" y="0" width="400" height="20"/></clipPath><clipPath id="clip12"><rect x="0" y="0" width="400" height="20"/></clipPath><clipPath id="clip13"><rect x="0" y="0" width="400" height="20"/></clipPath><clipPath id="clip14"><rect x="0" y="0" width="400" height="20"/></clipPath><clipPath id="clip15"><rect x="0" y="0" width="400" height="20"/></clipPath><clipPath id="clip16"><rect x="0" y="0" width="400" height="20"/></clipPath><clipPath id="clip17"><rect x="0" y="0" width="400" height="20"/></clipPath><clipPath id="clip18"><rect x="0" y="0" width="400" height="20"/></clipPath><clipPath id="clip19"><rect x="0" y="0" width="400" height="20"/></clipPath><clipPath id="clip20"><rect x="0" y="0" width="400" height="20"/></clipPath><clipPath id="clip21"><rect x="0" y="0" width="400" height="20"/></clipPath><clipPath id="clip22"><rect x="0" y="0" width="400" height="20"/></clipPath><clipPath id="clip23"><rect x="0" y="0" width="400" height="20"/></clipPath></defs></svg>